<svg width="19" height="20" viewBox="0 0 19 20" fill="none" xmlns="http://www.w3.org/2000/svg">
<path d="M17.7083 0H1.04167C0.765399 0 0.500448 0.109747 0.305097 0.305097C0.109747 0.500447 0 0.765399 0 1.04167V3.73958C0 4.28438 0.221875 4.81979 0.607292 5.20521L6.25 10.8479V18.75C6.2502 18.9275 6.2957 19.102 6.38219 19.2569C6.46867 19.4119 6.59328 19.5422 6.74421 19.6356C6.89514 19.7289 7.06741 19.7822 7.24469 19.7904C7.42197 19.7986 7.59841 19.7614 7.75729 19.6823L11.924 17.599C12.2771 17.4219 12.5 17.0615 12.5 16.6667V10.8479L18.1427 5.20521C18.5281 4.81979 18.75 4.28438 18.75 3.73958V1.04167C18.75 0.765399 18.6403 0.500447 18.4449 0.305097C18.2496 0.109747 17.9846 0 17.7083 0ZM10.7219 9.68021C10.625 9.77678 10.5481 9.89156 10.4957 10.018C10.4433 10.1443 10.4165 10.2799 10.4167 10.4167V16.0229L8.33333 17.0646V10.4167C8.33353 10.2799 8.30667 10.1443 8.25429 10.018C8.20191 9.89156 8.12504 9.77678 8.02812 9.68021L2.08333 3.73958V2.08333H16.6677L16.6698 3.73229L10.7219 9.68021Z" fill="white"/>
</svg>
