<svg width="27" height="27" viewBox="0 0 27 27" fill="none" xmlns="http://www.w3.org/2000/svg">
<path fill-rule="evenodd" clip-rule="evenodd" d="M0.552107 13.8122C0.405594 13.6657 0.323283 13.467 0.323284 13.2598C0.323283 13.0526 0.405594 12.8539 0.552107 12.7073L7.18123 6.07821C7.32775 5.9317 7.52646 5.84939 7.73366 5.84939C7.94086 5.84939 8.13957 5.9317 8.28609 6.07821C8.4326 6.22472 8.51491 6.42344 8.51491 6.63064C8.51491 6.83784 8.4326 7.03655 8.28609 7.18307L2.99052 12.4786L25.4113 12.4775C25.5141 12.4775 25.6158 12.4978 25.7107 12.5371C25.8056 12.5764 25.8918 12.634 25.9645 12.7066C26.0371 12.7793 26.0947 12.8655 26.134 12.9604C26.1733 13.0553 26.1936 13.157 26.1936 13.2598C26.1936 13.3625 26.1733 13.4642 26.134 13.5591C26.0947 13.654 26.0371 13.7403 25.9645 13.8129C25.8918 13.8855 25.8056 13.9431 25.7107 13.9825C25.6158 14.0218 25.5141 14.042 25.4113 14.042L2.99052 14.0409L8.28609 19.3365C8.4326 19.483 8.51491 19.6817 8.51491 19.8889C8.51491 20.0961 8.4326 20.2948 8.28609 20.4413C8.13957 20.5878 7.94086 20.6701 7.73366 20.6701C7.52646 20.6701 7.32775 20.5878 7.18123 20.4413L0.552107 13.8122Z" fill="#D4DAE5"/>
</svg>
