<svg width="17" height="16" viewBox="0 0 17 16" fill="none" xmlns="http://www.w3.org/2000/svg">
<path d="M3.83864 9.85768L2.57214 15.0183C2.53292 15.1746 2.54469 15.3383 2.60592 15.4882C2.66715 15.6381 2.77498 15.7671 2.91534 15.8584C3.0557 15.9497 3.22206 15.999 3.39269 16C3.56332 16.0009 3.73029 15.9535 3.87179 15.8637L8.50007 12.9603L13.1283 15.8637C13.2731 15.9542 13.4439 16.0007 13.6176 15.9972C13.7914 15.9936 13.9598 15.94 14.1002 15.8437C14.2407 15.7473 14.3464 15.6128 14.4032 15.4583C14.4599 15.3037 14.465 15.1365 14.4178 14.9791L12.8631 9.86008L16.7188 6.59511C16.8423 6.49048 16.9304 6.35408 16.9724 6.20279C17.0144 6.0515 17.0083 5.89195 16.955 5.74386C16.9016 5.59578 16.8033 5.46566 16.6722 5.3696C16.5411 5.27354 16.3829 5.21575 16.2173 5.20337L11.3714 4.84024L9.27443 0.472283C9.20756 0.331634 9.09887 0.212201 8.96146 0.128397C8.82406 0.044593 8.66381 0 8.50007 0C8.33633 0 8.17608 0.044593 8.03868 0.128397C7.90127 0.212201 7.79258 0.331634 7.72572 0.472283L5.62875 4.84024L0.782877 5.20257C0.620063 5.21471 0.464412 5.27073 0.334546 5.36393C0.20468 5.45713 0.106097 5.58356 0.0505918 5.7281C-0.00491335 5.87263 -0.0149906 6.02916 0.0215656 6.17895C0.0581219 6.32874 0.139764 6.46544 0.256724 6.57271L3.83864 9.85768ZM6.26371 6.39754C6.41543 6.3863 6.56114 6.33685 6.68557 6.25438C6.80999 6.17192 6.90855 6.05947 6.97091 5.92883L8.50007 2.74465L10.0292 5.92883C10.0916 6.05947 10.1901 6.17192 10.3146 6.25438C10.439 6.33685 10.5847 6.3863 10.7364 6.39754L14.1127 6.64949L11.3323 9.00424C11.0909 9.209 10.9948 9.52414 11.0832 9.81849L12.1483 13.3258L8.97267 11.3334C8.83329 11.2454 8.66922 11.1984 8.50135 11.1984C8.33348 11.1984 8.1694 11.2454 8.03002 11.3334L4.7116 13.4154L5.6041 9.77929C5.63683 9.64556 5.63244 9.50615 5.59135 9.37448C5.55026 9.24281 5.47387 9.12329 5.3695 9.02744L2.78719 6.65829L6.26371 6.39754Z" fill="#D4DAE5"/>
</svg>
