<svg width="14" height="18" viewBox="0 0 14 18" fill="none" xmlns="http://www.w3.org/2000/svg">
<path d="M7.96436 10.6211C9.33447 10.6211 10.6485 10.0768 11.6173 9.108C12.5861 8.13919 13.1304 6.82519 13.1304 5.45508C13.1304 4.08497 12.5861 2.77097 11.6173 1.80215C10.6485 0.833338 9.33447 0.289063 7.96436 0.289062H0.359375V1.85156H2.30972V9.05859H0.359375V10.6211H2.30972V12.7646H0.359375V14.3271H2.30972V17.0615H3.87222V14.3271H8.5625V12.7646H3.87222V10.6211H7.96436ZM3.87222 1.85156H7.96436C8.92007 1.85156 9.83664 2.23122 10.5124 2.90701C11.1882 3.5828 11.5679 4.49937 11.5679 5.45508C11.5679 6.41079 11.1882 7.32736 10.5124 8.00315C9.83664 8.67894 8.92007 9.05859 7.96436 9.05859H3.87222V1.85156Z" fill="#F08D42"/>
</svg>
